<?xml version="1.0" standalone="no"?>
<!DOCTYPE svg PUBLIC "-//W3C//DTD SVG 20010904//EN"
 "http://www.w3.org/TR/2001/REC-SVG-20010904/DTD/svg10.dtd">
<svg version="1.0" xmlns="http://www.w3.org/2000/svg"
 width="110.000000pt" height="110.000000pt" viewBox="0 0 110.000000 110.000000"
 preserveAspectRatio="xMidYMid meet">
<metadata>
Created by potrace 1.14, written by Peter Selinger 2001-2017
</metadata>
<g transform="translate(0.000000,110.000000) scale(0.100000,-0.100000)"
fill="#000000" stroke="none">
<path d="M385 1056 c-223 -72 -369 -272 -369 -506 0 -474 574 -709 911 -374
252 252 178 691 -144 853 -111 56 -276 67 -398 27z m156 -231 c117 -49 153
-68 190 -105 120 -120 100 -321 -39 -385 -20 -10 -38 -19 -40 -20 -2 -2 8 -26
23 -54 l26 -52 -33 14 c-18 8 -85 36 -148 62 -63 27 -132 62 -153 78 -107 83
-129 257 -44 353 17 20 48 44 69 53 l37 16 -24 50 c-28 56 -28 58 -17 53 5 -1
73 -30 153 -63z"/>
<path d="M652 747 c-5 -7 -30 -51 -56 -99 -26 -49 -51 -88 -55 -88 -4 0 -17
21 -29 46 -21 42 -25 45 -50 39 -45 -11 -98 -51 -115 -88 -33 -68 -18 -134 41
-190 34 -33 29 -37 97 86 27 48 51 87 55 87 3 0 16 -21 28 -46 21 -42 25 -45
50 -39 110 27 164 141 111 234 -27 47 -63 75 -77 58z"/>
</g>
</svg>
